<svg id="Слой_2" data-name="Слой 2" xmlns="http://www.w3.org/2000/svg" viewBox="0 0 46.89 46.89"><defs><style>.cls-1{fill:#fff;}.cls-2{fill:#f15a24;}</style></defs><path class="cls-1" d="M2,10" transform="translate(-2 -1.92)"/><path class="cls-1" d="M2,10" transform="translate(-2 -1.92)"/><polygon class="cls-2" points="17.77 10.52 42.08 20.03 27.47 24.74 31.53 20.03 17.77 10.52"/><path class="cls-1" d="M43.72,7.08A17.49,17.49,0,0,0,31.26,1.92h0A17.65,17.65,0,0,0,16.08,28.54L3.25,41.37a4.26,4.26,0,0,0,0,6l.16.16a4.29,4.29,0,0,0,6,0L22.27,34.72A17.63,17.63,0,0,0,43.72,7.08ZM7.28,45.4a1.2,1.2,0,0,1-.86.36,1.22,1.22,0,0,1-.86-.36l-.16-.16A1.2,1.2,0,0,1,5,44.38a1.22,1.22,0,0,1,.36-.86L17.88,31c.29.33.59.66.91,1s.64.62,1,.91ZM41.57,29.86A14.59,14.59,0,1,1,31.26,5a14.59,14.59,0,0,1,10.31,24.9Z" transform="translate(-2 -1.92)"/></svg>