<svg xmlns="http://www.w3.org/2000/svg" width="16.5" height="17.5" viewBox="0 0 16.5 17.5">
	<defs>
		<style>.a{fill:#ffb74d;stroke:rgba(0,0,0,0);stroke-miterlimit:10;}.b{fill:#8095b3;}</style>
	</defs>
	<g transform="translate(0.5 0.5)">
		<path class="a" d="M-1750.986-238H-1758v-12h4.5l2,2h7.5v3.416a4.963,4.963,0,0,0-2-.416,5.006,5.006,0,0,0-5,5c0,.242,0,.47,0,.684,0,.509-.009.947.018,1.315Z" transform="translate(1758 250)"/>
		<g transform="translate(-55 7)">
			<g transform="translate(64)">
				<path class="b" d="M70.806,3.75h-.583V2.917a2.729,2.729,0,1,0-5.444,0V3.75h-.583A.2.2,0,0,0,64,3.958V9.167a.808.808,0,0,0,.778.833h5.444A.808.808,0,0,0,71,9.167V3.958A.2.2,0,0,0,70.806,3.75ZM68.082,8.1a.219.219,0,0,1-.048.162.189.189,0,0,1-.145.069h-.778a.189.189,0,0,1-.145-.069.219.219,0,0,1-.048-.162L67.04,6.92a.844.844,0,0,1-.318-.67.78.78,0,1,1,1.556,0,.844.844,0,0,1-.318.67Zm.973-4.352H65.944V2.917a1.559,1.559,0,1,1,3.111,0Z" transform="translate(-64)"/>
			</g>
		</g>
	</g>
</svg>